<svg width="37" height="38" viewBox="0 0 37 38" fill="none" xmlns="http://www.w3.org/2000/svg">
<g clip-path="url(#clip0_4851_8870)">
<path d="M27.1518 36.1991C22.4174 40.2083 16.2299 33.2766 20.6111 28.8826L27.4327 22.0386C29.0876 20.3783 29.9151 18.2016 29.9151 16.0282C29.9151 13.8532 29.0859 11.6765 27.4327 10.0178C24.1228 6.69704 18.7594 6.69704 15.4495 10.0178L8.56405 16.9259C4.16435 21.3401 -2.79345 15.139 1.18412 10.3367C1.85686 9.52508 2.72973 8.91762 3.85152 8.61558L13.7879 5.94447L21.1258 3.97192C24.3044 3.11811 27.3671 3.86393 29.6863 5.58337C29.9924 5.80779 30.2834 6.05077 30.5626 6.30725L30.5845 6.32919C30.6719 6.41187 30.7594 6.49455 30.8435 6.58061L30.8502 6.58904C30.9376 6.67679 31.0268 6.76791 31.1109 6.85902L31.1193 6.86746C31.3783 7.14925 31.6222 7.44454 31.8475 7.75333C33.5613 10.0802 34.3064 13.1546 33.4554 16.3438L31.4893 23.7108L28.8791 33.4841C28.5747 34.6231 27.9658 35.5107 27.1518 36.1991Z" fill="url(#paint0_linear_4851_8870)"/>
<path style="mix-blend-mode:overlay" d="M30.8524 24.3976C28.259 26.9995 24.8129 28.2263 21.4156 28.0744L27.4332 22.037C29.0882 20.3766 29.9156 18.1999 29.9156 16.0265C29.9156 13.8515 29.0865 11.6748 27.4332 10.0161C24.1234 6.69535 18.76 6.69535 15.4501 10.0161L9.43413 16.0518C9.28445 12.645 10.5055 9.1876 13.0989 6.58736C13.3226 6.36293 13.5513 6.14864 13.7884 5.94447L21.1263 3.97192C24.305 3.11811 27.3676 3.86393 29.6869 5.58337C29.993 5.80779 30.284 6.05077 30.5632 6.30725L30.585 6.32919C30.6725 6.41187 30.7599 6.49455 30.844 6.58061L30.8507 6.58904C30.9382 6.67679 31.0273 6.7679 31.1114 6.85902L31.1198 6.86746C31.3789 7.14925 31.6227 7.44454 31.8481 7.75333C33.5619 10.0802 34.3069 13.1546 33.4559 16.3438L31.4899 23.7108C31.288 23.9471 31.0744 24.1766 30.8524 24.3993V24.3976Z" fill="url(#paint1_linear_4851_8870)" fill-opacity="0.5"/>
<path d="M35.0503 10.7675C35.1512 8.58573 34.3725 6.37021 32.7125 4.70308C32.2921 4.28124 31.8346 3.91339 31.3519 3.60798C29.9341 2.69511 28.2926 2.28001 26.668 2.35763L32.6469 1.03979C34.4936 0.633136 36.1721 1.9341 36.4075 3.66366C36.458 4.01801 36.4462 4.38923 36.3621 4.7672L35.0503 10.7658V10.7675Z" fill="url(#paint2_linear_4851_8870)"/>
<path d="M25.1194 19.7193L18.4391 26.4216C17.8874 26.975 17.2416 27.38 16.5537 27.6348C14.6919 28.3266 12.519 27.9217 11.0238 26.4216C9.99956 25.394 9.48828 24.0491 9.48828 22.7009C9.48828 21.3561 10.0012 20.0079 11.0255 18.982L17.7058 12.2797C19.7543 10.2245 23.0725 10.2245 25.1194 12.2797C25.2068 12.3674 25.2909 12.4569 25.3683 12.5497C27.1645 14.615 27.0804 17.7519 25.1194 19.7193Z" fill="url(#paint3_linear_4851_8870)"/>
<path d="M30.8667 18.5928L27.4324 22.0384C29.0873 20.378 29.9148 18.2013 29.9148 16.028C29.9148 13.853 29.0856 11.6763 27.4324 10.0176C24.1225 6.69681 18.7591 6.69681 15.4492 10.0176L18.8835 6.57194C21.8234 3.62241 26.3863 3.29338 29.686 5.58483C30.1031 5.87168 30.4967 6.20072 30.8667 6.57194C31.2367 6.94317 31.563 7.33633 31.8489 7.75479C34.1345 11.0654 33.8082 15.6433 30.8667 18.5945V18.5928Z" fill="url(#paint4_linear_4851_8870)"/>
<path style="mix-blend-mode:overlay" d="M25.1211 19.7181L18.4408 26.4203C17.8892 26.9738 17.2434 27.3788 16.5555 27.6336C13.8763 23.8943 14.211 18.6533 17.5629 15.2904C19.6972 13.1491 22.5883 12.2346 25.37 12.5484C27.1662 14.6138 27.0821 17.7506 25.1211 19.7181Z" fill="url(#paint5_linear_4851_8870)"/>
<path style="mix-blend-mode:overlay" d="M35.0499 10.7678C35.1509 8.58607 34.3722 6.37055 32.7122 4.70342C32.2917 4.28158 31.8343 3.91373 31.3516 3.60832C32.9392 2.80513 34.833 2.82369 36.4072 3.664C36.4576 4.01835 36.4459 4.38957 36.3618 4.76754L35.0499 10.7662V10.7678Z" fill="url(#paint6_linear_4851_8870)" fill-opacity="0.3"/>
</g>
<defs>
<linearGradient id="paint0_linear_4851_8870" x1="10.4916" y1="26.9523" x2="35.346" y2="2.17931" gradientUnits="userSpaceOnUse">
<stop stop-color="#A752FC"/>
<stop offset="1" stop-color="#DC92FF"/>
</linearGradient>
<linearGradient id="paint1_linear_4851_8870" x1="14.1859" y1="5.34191" x2="32.0784" y2="23.1757" gradientUnits="userSpaceOnUse">
<stop stop-opacity="0.7"/>
<stop offset="1" stop-color="white"/>
</linearGradient>
<linearGradient id="paint2_linear_4851_8870" x1="36.6098" y1="5.38897" x2="27.1771" y2="7.12944" gradientUnits="userSpaceOnUse">
<stop stop-color="#8A2FFD"/>
<stop offset="1" stop-color="#C857FD"/>
</linearGradient>
<linearGradient id="paint3_linear_4851_8870" x1="33.5521" y1="4.00485" x2="0.475959" y2="38.1501" gradientUnits="userSpaceOnUse">
<stop offset="0.414546" stop-color="#A058E7"/>
<stop offset="1" stop-color="#FFEEB1"/>
<stop offset="1" stop-color="#DDB1FF"/>
</linearGradient>
<linearGradient id="paint4_linear_4851_8870" x1="20.1641" y1="5.2892" x2="32.1863" y2="17.272" gradientUnits="userSpaceOnUse">
<stop stop-color="#A12BFD"/>
<stop offset="1" stop-color="#BE58FD"/>
</linearGradient>
<linearGradient id="paint5_linear_4851_8870" x1="15.403" y1="27.1409" x2="24.2252" y2="12.7474" gradientUnits="userSpaceOnUse">
<stop stop-opacity="0.7"/>
<stop offset="1" stop-color="white"/>
</linearGradient>
<linearGradient id="paint6_linear_4851_8870" x1="34.7578" y1="10.2037" x2="33.817" y2="3.21739" gradientUnits="userSpaceOnUse">
<stop stop-opacity="0.7"/>
<stop offset="1" stop-color="white"/>
</linearGradient>
<clipPath id="clip0_4851_8870">
<rect width="36.4372" height="36.4372" fill="white" transform="translate(0 0.964844)"/>
</clipPath>
</defs>
</svg>
