<svg width="8" height="12" viewBox="0 0 8 12" fill="none" xmlns="http://www.w3.org/2000/svg">
<path d="M7.26072 2.52751L7.26071 2.52751C7.37144 2.44009 7.4375 2.30496 7.4375 2.16253L7.4375 1.12769V1.12727L7.1875 1.12727L7.26072 2.52751ZM7.26072 2.52751L7.25966 2.52833M7.26072 2.52751L7.25966 2.52833M7.25966 2.52833L2.69059 6.09602L7.25823 9.66259C7.25854 9.66283 7.25885 9.66307 7.25915 9.66331C7.37529 9.75311 7.4375 9.89046 7.4375 10.0295L7.4375 11.0648C7.4375 11.3628 7.0942 11.5296 6.86038 11.3458C6.86023 11.3457 6.86009 11.3456 6.85994 11.3455L0.823466 6.63064C0.823425 6.63061 0.823384 6.63057 0.823343 6.63054C0.742113 6.56715 0.6764 6.48608 0.631196 6.39348C0.585968 6.30084 0.562459 6.19911 0.562459 6.09602C0.562459 5.99292 0.585968 5.89119 0.631196 5.79855C0.6764 5.70596 0.742113 5.62488 0.823343 5.56149C0.823384 5.56146 0.823425 5.56143 0.823466 5.5614L6.86009 0.846462L7.25966 2.52833Z" fill="white" stroke="white" stroke-width="0.5"/>
</svg>
